<?xml version="1.0" encoding="UTF-8"?>
<svg id="Layer_2" data-name="Layer 2" xmlns="http://www.w3.org/2000/svg" viewBox="0 0 720 720">
  <defs>
    <style>
      .cls-1 {
        fill: none;
      }

      .cls-2 {
        fill: #519bcd;
      }
    </style>
  </defs>
  <g id="Layer_1-2" data-name="Layer 1">
    <g id="pictorial_mark_-_c_blue" data-name="pictorial mark - c blue">
      <g>
        <path class="cls-2" d="M580.06,359.99l-.07.02-85.78,21.02c-39.54,9.68-77.46.2-106.33-21.02-10.64-7.84-20.06-17.25-27.87-27.9-21.24-28.88-30.72-66.79-21.04-106.33l21.04-85.78,31.33,127.77c7.37,30.06,30.84,53.5,60.89,60.87l127.84,31.35Z"/>
        <path class="cls-2" d="M381.04,494.22l-21.04,85.78-31.33-127.77c-7.37-30.06-30.84-53.5-60.89-60.87l-127.84-31.35.07-.02,85.78-21.02c39.54-9.68,77.46-.2,106.33,21.02,10.64,7.84,20.06,17.25,27.87,27.9,21.24,28.88,30.72,66.79,21.04,106.33Z"/>
      </g>
      <rect class="cls-1" width="720" height="720"/>
    </g>
  </g>
</svg>